<?xml version="1.0" standalone="no"?>
<!DOCTYPE svg PUBLIC "-//W3C//DTD SVG 20010904//EN"
 "http://www.w3.org/TR/2001/REC-SVG-20010904/DTD/svg10.dtd">
<svg version="1.0" xmlns="http://www.w3.org/2000/svg"
 width="305.000000pt" height="360.000000pt" viewBox="0 0 305.000000 360.000000"
 preserveAspectRatio="xMidYMid meet">
<metadata>
Created by potrace 1.16, written by Peter Selinger 2001-2019
</metadata>
<g transform="translate(0.000000,360.000000) scale(0.100000,-0.100000)"
fill="#000000" stroke="none">
<path d="M1405 3444 c27 -61 56 -207 56 -281 1 -128 -16 -180 -127 -398 -132
-260 -164 -364 -165 -542 0 -41 -3 -73 -5 -70 -3 3 -16 51 -29 108 -60 267
-163 463 -290 552 l-30 22 27 -33 c57 -68 62 -158 17 -328 -67 -258 -69 -267
-69 -376 0 -125 12 -192 49 -270 15 -31 22 -54 16 -51 -30 18 -182 153 -238
213 -72 76 -118 161 -141 259 -8 35 -17 65 -19 68 -7 7 -65 -148 -84 -225 -26
-105 -24 -305 5 -407 29 -101 105 -261 176 -370 31 -47 54 -85 52 -85 -2 0
-45 22 -97 49 -52 27 -128 61 -169 75 -73 24 -210 45 -210 32 0 -3 27 -38 59
-77 121 -144 168 -227 385 -683 105 -221 193 -325 337 -401 63 -33 149 -68
149 -61 0 2 -11 23 -23 47 -13 24 -43 89 -67 144 -24 55 -54 117 -67 138 -13
20 -21 37 -19 37 2 0 40 -15 84 -34 89 -38 153 -76 196 -115 19 -17 5 8 -39
74 -108 161 -178 324 -192 445 -3 30 -4 53 -1 50 3 -3 41 -50 85 -105 117
-146 217 -234 285 -250 26 -7 26 -5 -25 72 -80 119 -89 154 -95 388 -4 186 -3
199 12 186 32 -27 65 -97 96 -206 35 -120 51 -158 83 -192 31 -35 37 -28 20
25 -21 65 -20 202 1 281 10 36 47 130 83 210 55 122 67 159 74 225 4 43 10 80
12 82 2 3 17 -24 33 -58 31 -69 29 -44 25 -378 -2 -134 0 -164 19 -222 11 -38
24 -68 29 -68 26 0 148 180 179 263 11 29 23 72 27 97 l8 45 14 -40 c43 -120
38 -203 -22 -395 -39 -124 -58 -221 -53 -270 l3 -34 36 31 c20 18 59 77 89
133 55 101 111 170 163 197 35 18 41 14 28 -20 -6 -15 -18 -66 -27 -114 -34
-183 -102 -353 -180 -448 -41 -51 -42 -55 -22 -55 33 0 72 27 169 117 72 67
131 104 145 91 1 -2 -11 -25 -27 -52 -37 -60 -129 -230 -129 -240 0 -10 59 22
130 73 148 105 302 296 389 482 22 46 63 152 91 234 67 195 110 275 186 352
l61 62 -42 7 c-63 9 -142 -17 -198 -66 -25 -23 -75 -81 -111 -130 -77 -104
-127 -155 -167 -169 -16 -5 -29 -7 -29 -3 0 4 24 61 54 127 176 396 225 679
169 989 -16 90 -24 95 -38 26 -11 -54 -59 -151 -96 -196 -19 -23 -72 -75 -119
-116 -90 -80 -136 -145 -177 -251 l-23 -62 5 70 c11 121 36 264 62 349 19 59
27 112 30 196 7 147 -9 212 -82 340 -30 52 -59 116 -66 142 -12 50 -8 169 6
203 9 20 9 20 -20 1 -98 -62 -116 -103 -126 -276 -5 -90 -14 -157 -28 -200
-24 -77 -118 -243 -135 -237 -6 2 -22 30 -35 63 -28 69 -30 132 -17 464 8 192
7 210 -12 290 -35 139 -82 221 -192 331 -98 99 -151 140 -135 103z"/>
</g>
</svg>
