<?xml version="1.0" standalone="no"?>
<!DOCTYPE svg PUBLIC "-//W3C//DTD SVG 20010904//EN"
 "http://www.w3.org/TR/2001/REC-SVG-20010904/DTD/svg10.dtd">
<svg version="1.0" xmlns="http://www.w3.org/2000/svg"
 width="500.000000pt" height="500.000000pt" viewBox="0 0 500.000000 500.000000"
 preserveAspectRatio="xMidYMid meet">
<metadata>
Created by potrace 1.16, written by Peter Selinger 2001-2019
</metadata>
<g transform="translate(0.000000,500.000000) scale(0.100000,-0.100000)"
fill="#000000" stroke="none">
<path d="M744 3084 c4 -11 10 -42 13 -71 5 -47 1 -61 -45 -160 -28 -59 -54
-130 -58 -158 l-7 -50 -9 35 c-16 64 -49 138 -72 159 l-22 21 4 -34 c2 -18 -6
-73 -18 -120 -21 -87 -21 -146 2 -188 16 -32 -7 -19 -54 30 -48 49 -78 98 -78
129 -1 13 -6 10 -18 -12 -13 -23 -17 -54 -17 -125 0 -85 3 -101 29 -150 15
-30 35 -63 44 -72 20 -24 14 -23 -50 7 -29 14 -66 25 -81 25 l-28 0 36 -47
c20 -26 62 -102 94 -168 32 -66 70 -135 86 -153 24 -29 102 -79 110 -70 2 2
-10 31 -25 66 -16 34 -26 62 -22 62 4 0 26 -11 49 -24 l42 -24 -30 54 c-32 57
-63 144 -51 144 4 0 18 -16 31 -36 26 -38 77 -84 92 -84 5 0 0 18 -11 40 -15
29 -20 58 -20 117 0 85 8 85 36 -2 25 -77 40 -85 36 -21 -3 43 3 69 27 127 17
41 31 85 31 98 0 20 3 22 13 13 8 -9 12 -48 13 -115 0 -56 5 -111 11 -121 9
-17 12 -16 32 12 11 17 29 50 40 74 l18 43 7 -40 c4 -27 0 -62 -14 -110 -11
-38 -20 -81 -20 -95 1 -24 1 -25 16 -5 8 11 28 41 44 68 16 26 36 47 44 47 12
0 11 -11 -4 -70 -10 -38 -29 -90 -43 -115 -14 -25 -23 -45 -19 -45 4 0 25 16
46 35 35 31 56 43 56 31 0 -2 -12 -24 -26 -50 -14 -25 -21 -46 -15 -46 5 0 37
25 71 56 61 57 111 144 155 267 9 26 28 61 42 78 14 16 23 32 20 36 -14 13
-63 -11 -92 -44 -52 -62 -86 -96 -91 -91 -2 3 7 30 21 60 52 115 78 272 56
348 -7 24 -8 24 -19 -10 -7 -20 -35 -58 -63 -85 -28 -28 -57 -63 -65 -80 -13
-29 -13 -29 -13 -5 0 14 8 63 19 110 21 95 16 147 -22 209 -13 21 -21 50 -21
78 l0 44 -21 -20 c-14 -14 -22 -40 -27 -90 -7 -66 -40 -151 -58 -151 -17 0
-21 32 -21 161 0 139 -8 174 -56 236 -14 18 -34 38 -46 44 -19 10 -20 9 -14
-7z"/>
<path d="M1725 2813 c-22 -3 -43 -8 -47 -11 -4 -4 0 -30 9 -57 21 -68 24 -437
4 -543 -8 -39 -12 -75 -8 -78 3 -3 41 -6 86 -7 89 -2 115 10 93 41 -47 66 -52
78 -52 144 0 91 11 115 64 139 41 18 47 18 87 4 51 -18 64 -10 55 38 -8 44
-41 87 -67 87 -11 0 -42 -12 -70 -26 -58 -29 -75 -23 -85 31 -9 50 3 88 42
134 32 36 40 41 79 41 37 0 50 -6 86 -40 53 -49 69 -51 69 -6 0 51 -20 96 -47
107 -23 9 -215 10 -298 2z"/>
<path d="M3165 2812 c-55 -1 -103 -6 -108 -11 -4 -4 1 -35 11 -67 29 -88 40
-473 15 -550 -9 -30 -13 -57 -9 -61 4 -5 91 -8 193 -8 l185 0 28 32 c39 44 52
95 40 165 -11 68 -38 123 -79 162 -17 17 -31 35 -31 41 0 7 18 28 40 48 44 39
47 51 25 104 -8 19 -15 53 -15 74 0 56 -19 69 -100 69 -38 0 -74 1 -82 3 -7 1
-58 1 -113 -1z m179 -95 c12 -9 17 -23 14 -47 -2 -27 -14 -43 -57 -78 -69 -56
-95 -55 -99 7 -2 24 2 57 9 74 19 46 95 72 133 44z m-4 -252 c30 -16 45 -49
55 -125 8 -57 -18 -107 -68 -135 -36 -20 -36 -20 -64 1 -37 27 -63 80 -63 126
0 53 28 116 59 133 33 18 46 18 81 0z"/>
<path d="M2117 2658 c-14 -10 -15 -19 -8 -44 5 -18 12 -99 16 -180 5 -120 4
-164 -10 -228 -19 -93 -16 -98 60 -94 49 3 50 4 47 33 -2 17 -6 104 -8 195 -4
123 -2 183 9 235 18 83 12 95 -47 95 -23 0 -50 -6 -59 -12z"/>
<path d="M2301 2661 c-12 -8 -13 -20 -5 -68 6 -34 8 -139 4 -258 -4 -110 -3
-204 1 -209 12 -13 115 -20 123 -8 3 5 -3 30 -14 53 -32 72 -23 156 20 179 17
9 25 7 49 -17 22 -23 31 -45 44 -117 9 -49 22 -93 29 -98 20 -12 84 -9 96 5 8
10 6 21 -8 44 -10 18 -24 51 -30 75 -7 24 -23 62 -36 85 -13 23 -24 47 -24 54
0 6 16 29 35 50 19 22 35 49 35 60 0 38 -23 153 -33 167 -11 14 -263 17 -286
3z m217 -80 c25 -30 7 -82 -44 -129 -60 -55 -78 -52 -82 12 -4 58 11 99 46
127 28 21 58 18 80 -10z"/>
<path d="M2694 2655 c-3 -8 -1 -37 5 -66 18 -82 26 -336 12 -398 -17 -79 -12
-81 144 -82 155 0 165 6 165 98 0 70 -12 91 -56 99 -48 9 -59 -4 -43 -50 24
-65 -24 -99 -75 -54 -49 42 -53 146 -7 191 18 19 44 23 96 15 32 -5 33 45 1
77 -25 25 -26 25 -63 9 -64 -28 -78 -25 -81 19 -6 77 87 125 148 77 14 -11 31
-20 38 -20 24 0 7 73 -22 92 -6 4 -66 8 -134 8 -98 0 -124 -3 -128 -15z"/>
<path d="M3575 2661 c-3 -6 -1 -39 5 -74 10 -55 9 -321 -2 -437 l-3 -35 142
-3 141 -3 21 27 c31 39 26 83 -16 165 -42 80 -80 112 -110 93 -31 -19 -27 -42
10 -64 46 -27 64 -69 47 -111 -17 -39 -46 -51 -82 -33 -15 8 -30 19 -34 26
-17 27 -33 178 -28 268 5 100 18 134 54 145 13 4 20 14 18 23 -3 14 -18 18
-80 20 -43 2 -79 -1 -83 -7z"/>
<path d="M3990 2655 c-7 -8 -9 -26 -5 -43 3 -16 -1 -62 -10 -103 -56 -255 -59
-317 -16 -371 18 -21 28 -23 133 -26 139 -4 175 10 197 74 15 44 14 57 -25
219 -8 33 -18 101 -24 150 -7 65 -14 93 -27 103 -25 18 -207 17 -223 -3z m153
-73 c50 -55 63 -302 20 -360 -15 -20 -29 -27 -54 -27 -31 0 -36 5 -59 50 -21
43 -24 62 -23 138 3 101 15 154 44 191 24 30 49 33 72 8z"/>
<path d="M4385 2658 c-2 -7 -6 -44 -9 -83 -3 -38 -12 -115 -20 -170 -19 -126
-20 -187 -2 -230 25 -58 49 -67 188 -66 140 1 154 8 136 64 -5 18 -11 77 -12
133 -2 55 -6 106 -11 113 -5 10 -25 11 -74 6 -72 -8 -91 -17 -91 -47 0 -17 5
-19 33 -14 39 7 52 -1 66 -37 20 -51 -6 -119 -51 -138 -24 -10 -31 -9 -49 7
-55 49 -79 182 -53 294 21 96 79 144 119 100 16 -18 17 -25 7 -52 -14 -39 -9
-48 29 -48 38 0 73 34 65 63 -4 12 -9 38 -13 57 -10 58 -15 60 -140 60 -82 0
-115 -3 -118 -12z"/>
</g>
</svg>
