<svg xmlns="http://www.w3.org/2000/svg" version="1.0" width="500.000000pt" height="134.000000pt" viewBox="0 0 500.000000 134.000000" preserveAspectRatio="xMidYMid meet">
<metadata fill="#fcfcfc">
Created by potrace 1.16, written by Peter Selinger 2001-2019
</metadata>
<g transform="translate(0.000000,134.000000) scale(0.100000,-0.100000)" fill="#fcfcfc" stroke="none">
<path d="M225 1231 c-50 -3 -96 -10 -102 -14 -18 -11 -16 -42 8 -117 19 -58 21 -96 25 -337 5 -290 -4 -432 -33 -544 -18 -69 -17 -71 1 -85 14 -10 50 -14 122 -14 163 0 198 16 154 70 -81 100 -103 180 -81 304 15 88 29 109 91 141 56 29 105 32 157 10 46 -20 79 -19 87 2 9 22 -18 112 -47 154 -35 52 -76 51 -177 -3 l-80 -43 -26 27 c-22 22 -27 37 -32 96 -4 64 -2 74 28 131 39 72 75 106 130 121 64 17 113 -2 185 -71 34 -32 67 -59 73 -59 6 0 16 10 23 21 21 41 -15 180 -52 200 -23 12 -334 20 -454 10z" fill="#fcfcfc"/>
<path d="M2322 1219 c-26 -10 -28 -33 -7 -83 36 -86 43 -159 50 -505 l7 -344 -28 -69 c-31 -77 -28 -84 32 -99 57 -13 476 -11 530 2 51 13 85 48 120 124 30 63 31 135 5 238 -26 100 -43 130 -114 205 -55 57 -59 64 -48 85 7 12 35 39 61 59 65 50 73 86 36 174 -18 45 -26 83 -26 124 0 94 3 93 -324 95 -149 1 -282 -2 -294 -6z m457 -156 c18 -21 22 -34 17 -61 -8 -49 -25 -70 -107 -133 -92 -70 -111 -77 -140 -48 -19 19 -21 29 -17 99 6 106 38 150 123 171 48 12 98 1 124 -28z m-8 -393 c39 -29 54 -64 69 -165 16 -104 4 -150 -53 -209 -82 -86 -166 -71 -222 38 -26 52 -30 70 -30 140 0 63 5 90 22 121 22 41 66 88 93 98 28 11 89 -1 121 -23z" fill="#fcfcfc"/>
<path d="M4492 1000 c-35 -4 -68 -12 -75 -19 -7 -7 -12 -51 -12 -119 0 -59 -6 -132 -13 -162 -6 -30 -19 -105 -27 -165 -35 -258 -8 -382 93 -417 40 -14 346 -13 398 1 26 7 29 12 28 47 0 21 -7 75 -15 119 -13 77 -17 174 -9 263 3 30 0 46 -10 53 -8 5 -64 8 -123 7 -101 -3 -110 -5 -128 -27 -27 -33 -22 -66 11 -65 14 0 37 4 52 8 23 7 33 3 58 -22 28 -28 30 -35 30 -105 0 -88 -22 -131 -83 -161 -49 -23 -74 -13 -117 45 -41 57 -59 123 -66 249 -5 83 -3 124 11 186 25 116 50 154 112 175 46 15 80 5 98 -31 14 -28 14 -33 -6 -77 -20 -45 -20 -47 -3 -60 31 -22 102 -4 138 36 19 21 19 23 2 104 -10 45 -20 92 -22 104 -3 14 -13 25 -27 27 -43 9 -233 12 -295 6z" fill="#fcfcfc"/>
<path d="M1122 988 c-40 -11 -48 -39 -27 -97 21 -62 22 -589 0 -671 -24 -91 -14 -99 130 -103 86 -3 89 4 44 104 -29 67 -31 79 -25 144 7 78 27 114 70 130 66 23 120 -56 142 -212 23 -155 35 -173 116 -173 95 0 110 25 63 100 -14 22 -33 68 -41 103 -16 62 -46 127 -83 182 -12 17 -21 38 -21 47 0 9 24 41 54 70 67 66 76 99 52 207 -9 42 -16 90 -16 107 0 17 -6 39 -14 50 -13 18 -28 19 -213 20 -109 0 -213 -4 -231 -8z m304 -103 c31 -21 47 -68 39 -111 -5 -27 -24 -56 -68 -102 -124 -129 -176 -117 -156 38 9 78 42 147 81 175 28 19 77 19 104 0z" fill="#fcfcfc"/>
<path d="M1736 987 c-17 -12 -17 -17 -2 -88 34 -166 48 -520 25 -644 -6 -33 -12 -73 -13 -90 -2 -49 27 -56 243 -57 215 -2 235 4 247 66 10 55 1 213 -14 228 -6 6 -41 14 -77 16 -79 5 -90 -9 -55 -73 27 -50 22 -87 -15 -111 -81 -53 -185 65 -173 197 10 97 79 177 143 165 109 -21 105 -21 105 12 0 58 -44 132 -78 132 -7 0 -45 -14 -83 -30 -54 -24 -73 -28 -89 -20 -25 13 -36 72 -20 110 17 41 81 97 125 109 43 12 66 5 119 -38 22 -17 44 -30 50 -28 6 2 11 28 11 57 -1 45 -5 56 -29 76 -26 23 -32 24 -215 24 -138 0 -192 -3 -205 -13z" fill="#fcfcfc"/>
<path d="M3136 988 c-18 -14 -18 -18 -3 -84 11 -47 18 -151 23 -324 6 -227 5 -262 -11 -320 -29 -107 -30 -127 -6 -139 13 -7 64 -11 133 -9 62 2 153 1 201 -1 76 -3 92 -1 115 16 82 60 76 167 -20 326 -66 110 -129 145 -173 97 -27 -29 -10 -68 39 -94 57 -30 79 -66 80 -127 1 -46 -2 -54 -36 -85 -51 -47 -80 -45 -133 9 -36 35 -44 51 -49 92 -4 28 -11 74 -16 104 -13 72 -13 289 1 371 11 73 26 94 75 110 26 9 34 17 34 36 0 13 -1 24 -2 24 -2 0 -55 3 -118 6 -90 5 -119 3 -134 -8z" fill="#fcfcfc"/>
<path d="M3797 985 c-12 -11 -15 -37 -15 -102 1 -64 -6 -118 -26 -198 -34 -138 -66 -324 -66 -390 0 -59 31 -129 70 -157 22 -16 49 -19 205 -21 176 -2 181 -1 224 23 25 14 53 39 64 57 26 46 33 130 14 189 -8 27 -18 74 -22 104 -3 30 -15 84 -26 120 -10 36 -26 129 -34 208 -8 79 -17 147 -20 152 -12 20 -86 30 -217 30 -108 0 -140 -3 -151 -15z m214 -95 c29 -16 66 -98 85 -191 18 -91 15 -298 -6 -370 -22 -76 -101 -119 -154 -84 -34 23 -83 123 -91 188 -4 29 -2 111 4 182 12 139 35 210 85 260 27 27 46 31 77 15z" fill="#fcfcfc"/>
<path d="M800 975 c-9 -11 -8 -28 5 -82 26 -102 28 -586 3 -658 -26 -73 -24 -103 8 -115 37 -15 137 -12 159 4 18 13 18 15 0 82 -32 121 -26 556 10 695 22 85 19 89 -85 89 -65 0 -91 -4 -100 -15z" fill="#fcfcfc"/>
</g>
</svg>